<svg width="37" height="37" viewBox="0 0 37 37" fill="currentColor" xmlns="http://www.w3.org/2000/svg">
  <g clip-path="url(#clip0_1993_1502)">
    <path opacity="0.8"
          d="M20 3C10.616 3 3 10.616 3 20C3 29.384 10.616 37 20 37C29.384 37 37 29.384 37 20C37 10.616 29.384 3 20 3ZM20 8.1C22.822 8.1 25.1 10.378 25.1 13.2C25.1 16.022 22.822 18.3 20 18.3C17.178 18.3 14.9 16.022 14.9 13.2C14.9 10.378 17.178 8.1 20 8.1ZM20 32.24C15.75 32.24 11.993 30.064 9.8 26.766C9.851 23.383 16.6 21.53 20 21.53C23.383 21.53 30.149 23.383 30.2 26.766C28.007 30.064 24.25 32.24 20 32.24Z"
          fill="white"/>
  </g>
  <defs>
    <clipPath id="clip0_1993_1502">
      <rect width="37" height="37" fill="white"/>
    </clipPath>
  </defs>
</svg>
