<!-- Generated by IcoMoon.io -->
<svg version="1.1" xmlns="http://www.w3.org/2000/svg" width="512" height="512" viewBox="0 0 512 512">
<title></title>
<g id="icomoon-ignore">
</g>
<path d="M276.757 41.514c-129.855 0-235.243 105.389-235.243 235.243s105.389 235.243 235.243 235.243c129.854 0 235.243-105.389 235.243-235.243s-105.389-235.243-235.243-235.243zM276.757 112.087c39.050 0 70.573 31.523 70.573 70.573s-31.522 70.573-70.573 70.573c-39.050 0-70.573-31.523-70.573-70.573s31.523-70.573 70.573-70.573zM276.757 446.132c-58.811 0-110.799-30.111-141.146-75.748 0.706-46.813 94.097-72.455 141.146-72.455 46.813 0 140.44 25.642 141.146 72.455-30.346 45.637-82.335 75.749-141.146 75.749z"></path>
</svg>
