<!-- Generated by IcoMoon.io -->
<svg version="1.1" xmlns="http://www.w3.org/2000/svg" width="489" height="512" viewBox="0 0 489 512">
<title></title>
<g id="icomoon-ignore">
</g>
<path d="M358.815 223.816c-71.112 0-128.962 57.852-128.962 128.957 0 71.11 57.85 128.961 128.962 128.961 71.11 0 128.959-57.851 128.959-128.961s-57.849-128.957-128.959-128.957zM413.089 368.677h-55.271c-8.229 0-14.904-6.675-14.904-14.909v-55.265c0-8.234 6.675-14.909 14.904-14.909 8.231 0 14.906 6.675 14.906 14.909v40.36h40.364c8.229 0 14.904 6.673 14.904 14.906s-6.673 14.909-14.904 14.909z"></path>
<path d="M165.238 145.175l30.206-12.648c3.684-1.543 7.831-1.543 11.514 0l30.202 12.648v-116.059h-71.922v116.059z"></path>
<path d="M358.812 194.022c15.456 0 30.397 2.23 44.533 6.369v-134.629c0-20.195-16.428-36.623-36.622-36.623h-99.754v138.462c0 4.989-2.495 9.646-6.649 12.409-2.483 1.652-5.362 2.494-8.26 2.494-1.951 0-3.903-0.381-5.757-1.156l-45.109-18.886-45.11 18.886c-4.597 1.928-9.859 1.424-14.012-1.339s-6.649-7.42-6.649-12.409v-138.462h-99.754c-20.195 0-36.623 16.428-36.623 36.624v331.052c0 20.196 16.428 36.625 36.623 36.625h186.428c-14.001-23.652-22.055-51.221-22.055-80.64 0-87.552 71.226-158.776 158.771-158.776z"></path>
</svg>
