<!-- Generated by IcoMoon.io -->
<svg version="1.1" xmlns="http://www.w3.org/2000/svg" width="732" height="512" viewBox="0 0 732 512">
<title></title>
<g id="icomoon-ignore">
</g>
<path d="M208.719 10.711c-14.282-14.282-37.438-14.282-51.72 0l-146.286 146.286c-10.46 10.459-13.588 26.19-7.928 39.855s18.996 22.577 33.788 22.577h511.999c20.198 0 36.572-16.374 36.572-36.571s-16.373-36.572-36.572-36.572h-423.708l83.855-83.855c14.282-14.282 14.282-37.438 0-51.72zM606.567 365.714l-83.855 83.854c-14.281 14.281-14.281 37.438 0 51.719s37.438 14.281 51.72 0l146.286-146.286c10.46-10.459 13.59-26.19 7.928-39.855s-18.995-22.577-33.788-22.577h-511.999c-20.198 0-36.572 16.374-36.572 36.572s16.374 36.572 36.572 36.572h423.708z"></path>
</svg>
