<!-- Generated by IcoMoon.io -->
<svg version="1.1" xmlns="http://www.w3.org/2000/svg" width="512" height="512" viewBox="0 0 512 512">
<title></title>
<g id="icomoon-ignore">
</g>
<path d="M320.005 22.188c-11.31 0-20.48 9.169-20.48 20.48v22.187h-75.52c-11.311 0-20.48 9.169-20.48 20.48s9.169 20.48 20.48 20.48h75.52v22.186c0 11.311 9.17 20.48 20.48 20.48s20.48-9.169 20.48-20.48v-85.333c0-11.311-9.17-20.48-20.48-20.48zM43.525 213.334c0-11.311 9.169-20.48 20.48-20.48h384c11.31 0 20.48 9.169 20.48 20.48v192.001c0 16.748-6.654 32.809-18.496 44.651s-27.904 18.493-44.651 18.493h-298.666c-16.748 0-32.809-6.651-44.651-18.493s-18.495-27.904-18.495-44.651v-192.001zM84.485 233.815v171.521c0 5.883 2.338 11.527 6.498 15.688s9.804 6.498 15.688 6.498h298.666c5.885 0 11.527-2.337 15.69-6.498 4.16-4.16 6.498-9.805 6.498-15.688v-171.521h-343.040z"></path>
<path d="M106.671 105.81c-5.884 0-11.528 2.338-15.688 6.499s-6.499 9.805-6.499 15.689v85.333c0 11.311-9.169 20.48-20.48 20.48s-20.48-9.169-20.48-20.48v-85.333c0-16.748 6.653-32.809 18.495-44.651s27.904-18.495 44.651-18.495h42.667c11.311 0 20.48 9.169 20.48 20.48s-9.169 20.48-20.48 20.48h-42.667z"></path>
<path d="M149.343 22.188c11.311 0 20.48 9.169 20.48 20.48v85.333c0 11.311-9.169 20.48-20.48 20.48s-20.48-9.169-20.48-20.48v-85.333c0-11.311 9.169-20.48 20.48-20.48z"></path>
<path d="M374.188 85.33c0-11.311 9.17-20.48 20.48-20.48h10.668c16.748 0 32.809 6.653 44.651 18.495s18.493 27.904 18.493 44.651v85.333c0 11.311-9.168 20.48-20.48 20.48-11.31 0-20.48-9.169-20.48-20.48v-85.333c0-5.884-2.337-11.528-6.498-15.689s-9.805-6.499-15.688-6.499h-10.668c-11.31 0-20.48-9.169-20.48-20.48z"></path>
</svg>
