<!-- Generated by IcoMoon.io -->
<svg version="1.1" xmlns="http://www.w3.org/2000/svg" width="34" height="32" viewBox="0 0 34 32">
<title>eye-v2</title>
<path d="M1 16c0 0 6 12 16 12s16-12 16-12c0 0-6-12-16-12s-16 12-16 12zM4.62 16.26c-0.054-0.086-0.107-0.173-0.16-0.26l0.164-0.26c0.652-1.020 1.612-2.374 2.84-3.712 2.524-2.758 5.776-5.028 9.536-5.028 3.756 0 7.012 2.27 9.54 5.028 1.118 1.23 2.123 2.56 3 3.972-0.882 1.41-1.887 2.74-3.004 3.972-2.524 2.758-5.776 5.028-9.536 5.028-3.756 0-7.012-2.27-9.54-5.028-1.051-1.154-2.001-2.396-2.84-3.712v0zM23 16v0c0.001-0.599-0.088-1.194-0.264-1.766-0.2 0.442-0.504 0.829-0.887 1.128s-0.832 0.5-1.309 0.587c-0.477 0.087-0.969 0.057-1.432-0.088s-0.884-0.399-1.227-0.742c-0.343-0.343-0.598-0.764-0.742-1.227s-0.175-0.954-0.088-1.432c0.087-0.477 0.288-0.926 0.587-1.309s0.686-0.687 1.128-0.887c-1.207-0.372-2.501-0.353-3.697 0.053s-2.233 1.18-2.964 2.21c-0.731 1.030-1.117 2.265-1.105 3.528s0.422 2.49 1.172 3.506c0.75 1.016 1.802 1.77 3.005 2.153s2.497 0.378 3.697-0.017c1.2-0.395 2.244-1.158 2.985-2.181s1.14-2.254 1.14-3.517z"></path>
</svg>
