<!-- Generated by IcoMoon.io -->
<svg version="1.1" xmlns="http://www.w3.org/2000/svg" width="768" height="768" viewBox="0 0 768 768">
  <title></title>
  <g id="icomoon-ignore">
  </g>
  <path fill="currentColor"
        d="M576 224c17.344 0 32 14.656 32 32v224c0 17.344-14.656 32-32 32h-282.528l-5.472 5.472v-5.472h-96c-17.344 0-32-14.656-32-32v-224c0-17.344 14.656-32 32-32h384zM576 160h-384c-52.8 0-96 43.2-96 96v224c0 52.8 43.2 96 96 96h32v96l96-96h256c52.8 0 96-43.2 96-96v-224c0-52.8-43.2-96-96-96z"></path>
</svg>
