<!-- Generated by IcoMoon.io -->
<svg version="1.1" xmlns="http://www.w3.org/2000/svg" width="32" height="32" viewBox="0 0 32 32">
<title>zoom</title>
<path d="M13.6 5.824c-4.295 0-7.776 3.481-7.776 7.776s3.481 7.776 7.776 7.776c4.295 0 7.776-3.481 7.776-7.776s-3.481-7.776-7.776-7.776zM3.776 13.6c0-5.426 4.398-9.824 9.824-9.824s9.824 4.398 9.824 9.824c0 5.426-4.398 9.824-9.824 9.824s-9.824-4.398-9.824-9.824z"></path>
<path d="M18.982 19.57c0.385-0.414 1.033-0.438 1.447-0.054l7.467 6.933c0.414 0.385 0.438 1.033 0.054 1.447s-1.033 0.438-1.447 0.053l-7.467-6.933c-0.414-0.385-0.439-1.033-0.054-1.447z"></path>
</svg>
