<!-- Generated by IcoMoon.io -->
<svg version="1.1" xmlns="http://www.w3.org/2000/svg" width="512" height="512" viewBox="0 0 512 512">
  <title></title>
  <g id="icomoon-ignore">
  </g>
  <path fill="currentColor"
        d="M494.592 193.28l-48.384-16.128 22.784-45.568c2.309-4.769 3.082-10.138 2.212-15.365-0.873-5.228-3.344-10.055-7.076-13.819l-54.528-54.528c-3.784-3.786-8.658-6.292-13.939-7.164-5.279-0.873-10.701-0.068-15.501 2.3l-45.568 22.784-16.128-48.384c-1.702-5.043-4.935-9.431-9.25-12.55s-9.493-4.818-14.815-4.857h-76.8c-5.367-0.014-10.602 1.659-14.966 4.783s-7.636 7.54-9.353 12.625l-16.128 48.384-45.568-22.784c-4.769-2.309-10.138-3.082-15.365-2.211s-10.055 3.343-13.819 7.075l-54.528 54.528c-3.786 3.783-6.292 8.657-7.164 13.938s-0.068 10.702 2.3 15.502l22.784 45.568-48.384 16.128c-5.043 1.703-9.431 4.936-12.55 9.25s-4.818 9.492-4.857 14.815v76.8c-0.014 5.366 1.659 10.603 4.783 14.966 3.124 4.365 7.54 7.637 12.625 9.354l48.384 16.128-22.784 45.568c-2.309 4.769-3.082 10.137-2.211 15.365s3.343 10.055 7.075 13.819l54.528 54.528c3.783 3.786 8.657 6.293 13.938 7.166s10.702 0.067 15.502-2.301l45.568-22.784 16.128 48.384c1.718 5.084 4.989 9.5 9.353 12.626 4.364 3.123 9.6 4.795 14.966 4.782h76.8c5.366 0.013 10.603-1.659 14.966-4.782 4.365-3.126 7.637-7.542 9.354-12.626l16.128-48.384 45.568 22.784c4.738 2.25 10.055 2.993 15.229 2.122s9.956-3.308 13.699-6.986l54.528-54.528c3.786-3.784 6.293-8.658 7.166-13.939 0.873-5.279 0.067-10.701-2.301-15.501l-22.784-45.568 48.384-16.128c5.043-1.702 9.431-4.935 12.551-9.25 3.118-4.313 4.818-9.493 4.856-14.815v-76.8c0.013-5.367-1.659-10.602-4.782-14.966-3.126-4.364-7.542-7.636-12.626-9.353zM460.8 275.968l-30.72 10.24c-7.063 2.291-13.545 6.093-18.993 11.139-5.45 5.046-9.736 11.218-12.56 18.087-2.826 6.868-4.124 14.269-3.801 21.688 0.32 7.419 2.25 14.679 5.658 21.279l14.592 29.184-28.16 28.16-28.416-15.36c-6.564-3.272-13.755-5.092-21.087-5.342-7.329-0.251-14.628 1.078-21.401 3.894-6.771 2.816-12.861 7.053-17.853 12.426s-8.771 11.758-11.082 18.719l-10.24 30.72h-40.704l-10.24-30.72c-2.292-7.063-6.092-13.545-11.138-18.993-5.047-5.45-11.218-9.736-18.086-12.56-6.868-2.826-14.268-4.124-21.688-3.801-7.419 0.32-14.68 2.25-21.279 5.658l-29.184 14.592-28.16-28.16 15.36-28.416c3.407-6.599 5.338-13.86 5.659-21.279s-0.977-14.82-3.802-21.688c-2.825-6.868-7.111-13.041-12.559-18.087s-11.93-8.848-18.994-11.139l-30.72-10.24v-39.936l30.72-10.24c7.064-2.292 13.546-6.092 18.994-11.138s9.734-11.218 12.559-18.086c2.825-6.868 4.123-14.268 3.802-21.688s-2.251-14.68-5.659-21.279l-14.592-28.416 28.16-28.16 28.416 14.592c6.599 3.407 13.86 5.338 21.279 5.659s14.82-0.977 21.688-3.802c6.868-2.825 13.040-7.111 18.086-12.559s8.847-11.93 11.138-18.994l10.24-30.72h39.936l10.24 30.72c2.291 7.064 6.093 13.546 11.139 18.994s11.218 9.734 18.087 12.559c6.868 2.825 14.269 4.123 21.688 3.802s14.679-2.251 21.279-5.659l29.184-14.592 28.16 28.16-15.36 28.416c-3.272 6.565-5.092 13.756-5.342 21.087s1.078 14.629 3.894 21.401c2.816 6.773 7.053 12.861 12.426 17.853s11.758 8.772 18.719 11.083l30.72 10.24v40.704zM256 153.6c-20.252 0-40.050 6.006-56.891 17.257s-29.965 27.244-37.715 45.956c-7.75 18.711-9.778 39.3-5.827 59.165 3.951 19.863 13.704 38.108 28.025 52.429s32.567 24.074 52.43 28.024c19.864 3.952 40.452 1.925 59.163-5.827 18.711-7.749 34.706-20.874 45.957-37.714s17.257-36.639 17.257-56.891c0-27.158-10.788-53.204-29.993-72.407-19.202-19.204-45.248-29.993-72.407-29.993zM256 307.2c-10.126 0-20.025-3.003-28.445-8.63-8.42-5.625-14.982-13.622-18.858-22.976-3.875-9.357-4.889-19.651-2.913-29.583s6.852-19.055 14.012-26.215c7.161-7.161 16.284-12.037 26.215-14.012s20.226-0.962 29.583 2.913c9.354 3.875 17.351 10.438 22.976 18.858 5.627 8.42 8.63 18.319 8.63 28.445 0 13.578-5.394 26.601-14.997 36.204s-22.625 14.997-36.204 14.997z"></path>
</svg>
